<?xml version="1.0" encoding="UTF-8"?>
<svg xmlns="http://www.w3.org/2000/svg" width="235" height="36" viewBox="0 0 235 36" fill="none"><path fill-rule="evenodd" clip-rule="evenodd" d="M143.171 2.77403C143.108 2.8052 143.076 2.89871 143.108 2.96105C143.108 3.02338 143.171 3.08572 143.266 3.11689C145.695 3.61559 146.705 5.08053 147.116 6.23377C147.747 8.04157 147.368 10.0987 146.611 11.0026C146.548 11.0649 146.548 11.1584 146.611 11.252C146.674 11.3143 146.768 11.3455 146.832 11.2831C148.125 10.5662 148.977 9.44416 149.261 8.07273C149.545 6.70131 149.198 5.23637 148.346 4.14546C147.021 2.49351 144.307 1.96364 143.171 2.77403ZM140.804 4.17663C139.226 4.80001 138.09 6.32728 137.996 7.94806C137.933 8.97663 138.217 10.9403 140.962 12.4987C141.057 12.5299 141.151 12.5299 141.183 12.4675C141.246 12.4052 141.246 12.3117 141.183 12.2182C140.741 11.7507 139.794 9.16364 140.646 7.26235C141.278 5.85975 142.698 5.2052 144.907 5.26754C144.97 5.26754 145.064 5.23637 145.096 5.14286C145.127 5.08053 145.096 4.98702 145.033 4.95585C143.802 3.89611 142.256 3.58442 140.804 4.17663ZM143.771 6.32728C142.666 6.42079 141.783 7.04416 141.372 8.07273C140.899 9.19481 141.12 10.4727 141.909 11.4078C142.477 12.0623 143.865 13.0909 146.705 12.4364C146.8 12.4052 146.863 12.3429 146.832 12.2494C146.832 12.1559 146.768 12.0935 146.674 12.0935C145.916 12.0312 143.613 11.1584 142.982 9.56884C142.635 8.63377 142.919 7.66754 143.897 6.67014C143.96 6.6078 143.96 6.54546 143.928 6.45196C143.928 6.35845 143.834 6.32728 143.771 6.32728ZM150.397 6.91949C150.334 6.95066 150.271 7.013 150.271 7.07533C150.082 8.57144 149.798 10.4416 148.946 11.5325C147.589 13.2468 145.38 13.5584 144.181 13.5896C144.086 13.5896 144.023 13.652 144.023 13.7455V13.7766C144.023 13.839 144.055 13.9013 144.149 13.9325C146.768 14.9922 149.514 14.6494 150.681 13.0909C151.313 12.2494 151.691 11.1273 151.691 10.0052C151.691 8.88312 151.313 7.82338 150.618 6.98183C150.555 6.91949 150.46 6.88832 150.397 6.91949ZM144.402 7.44936C144.339 7.44936 144.275 7.5117 144.244 7.57403C144.118 7.91689 144.086 8.22858 144.086 8.5091C144.086 9.47533 144.654 10.161 145.222 10.4727C145.285 10.5039 145.38 10.5039 145.411 10.4727C146.263 9.81819 146.358 9.0078 146.137 8.47793C145.885 7.79222 145.191 7.38702 144.402 7.44936ZM137.396 10.1922C137.302 10.2234 137.238 10.2857 137.238 10.3792C137.238 10.5662 137.207 10.7533 137.238 10.9403C137.491 13.839 139.321 16.7377 143.297 17.2675C146.895 17.7662 149.324 15.6156 149.451 15.5221C149.514 15.4597 149.545 15.3662 149.514 15.3039C149.482 15.2104 149.388 15.1792 149.324 15.1792H149.261C147.368 15.3974 145.096 15.8961 142.13 14.6805C139.51 13.5896 138.311 11.3766 137.68 10.3481L137.649 10.3169C137.554 10.2234 137.491 10.161 137.396 10.1922Z" fill="#DB0032"/><path d="M142.698 21.0701C142.698 21.039 142.351 20.9455 141.972 20.8208C141.94 20.8208 141.941 20.8208 141.909 20.7896C141.814 20.7585 141.688 20.7273 141.593 20.6961C141.562 20.6961 141.562 20.6649 141.53 20.6649C137.87 19.4494 134.967 16.3636 134.367 12.1247C133.483 5.89092 137.018 0.0623474 137.018 0.0623474H131.464L130.012 2.96105H132.631C132.631 2.96105 130.959 6.88832 131.495 11.4078C132.284 18.3584 137.365 20.6338 141.877 21.1013C142.351 21.1325 142.698 21.1325 142.698 21.0701Z" fill="#BE955B"/><path d="M145.759 21.0701C145.759 21.039 146.106 20.9455 146.485 20.8208C146.516 20.8208 146.516 20.8208 146.548 20.7896C146.642 20.7585 146.769 20.7273 146.863 20.6961C146.895 20.6961 146.895 20.6649 146.926 20.6649C150.587 19.4494 153.49 16.3636 154.09 12.1247C154.973 5.89092 151.439 0.0623474 151.439 0.0623474H156.993L158.444 2.92988H155.794C155.794 2.92988 157.466 6.85715 156.93 11.3766C156.141 18.3273 151.06 20.6026 146.548 21.0701C146.106 21.1325 145.759 21.1325 145.759 21.0701Z" fill="#BE955B"/><path d="M29.9785 13.1532C29.7576 13.5273 28.874 14.4 28.2429 14.6494C27.4225 14.961 26.4127 15.1481 25.8446 15.1481H22.689C22.4681 15.1481 22.4366 15.1481 22.4366 14.8675V9.88052C22.4366 9.75584 22.4681 9.66234 22.689 9.66234H26.7913C27.4856 9.66234 27.7065 9.78701 27.8958 10.3169C28.0536 10.7221 28.0851 11.1896 28.0851 11.1896V11.3455L28.874 11.3143V11.1584V6.73247H28.1167V6.88831C28.1167 6.88831 28.0851 7.32467 27.8642 7.76104C27.6118 8.25974 27.17 8.50909 26.4442 8.50909H22.8783C22.5628 8.50909 22.4997 8.47792 22.4681 8.47792C22.4681 8.47792 22.4366 8.41558 22.4366 8.13506V3.74026C22.4366 3.55325 22.4366 3.3974 22.4681 3.33506L26.3811 3.36623C27.5487 3.36623 28.2114 3.55325 28.4323 3.70909C29.0634 4.20779 29.0003 5.11169 29.0003 5.11169L28.9687 5.2987H29.8523V5.14286V2.21299H18.8707V3.05454L19.628 3.14805C19.912 3.21039 20.1645 3.36623 20.3223 3.58441C20.4169 3.74026 20.5432 4.02078 20.5432 4.67532V13.9013C20.5432 14.6493 20.4485 14.8987 20.3854 14.9922C20.3223 15.0857 20.1329 15.2416 19.6596 15.4286C19.4071 15.5221 19.0285 15.5532 19.0285 15.5532H18.8707V16.2701H29.0318L30.9883 13.0597H30.0101L29.9785 13.1532ZM43.2953 2.99221H43.4531C43.4531 2.99221 43.7686 2.99221 44.2104 3.11688C45.0309 3.3974 45.1887 3.83377 45.1887 5.04935V12.9039C43.9895 11.626 35.3746 2.24415 35.3746 2.24415L35.3431 2.21299H33.1341V2.96104L33.2604 2.99221C33.4182 3.02338 33.8599 3.08571 33.9862 3.14805C35.2484 3.74026 35.2484 4.83117 35.2484 5.92208V6.26493V13.3091C35.2484 13.9013 35.1538 14.4312 34.996 14.7117C34.7751 15.0857 34.2071 15.3662 33.2919 15.4909L33.1657 15.5221V16.2701H38.4356V15.5221H38.2778C38.2778 15.5221 37.1734 15.4286 36.7 14.8987C36.5422 14.7117 36.4791 14.4623 36.4791 14.0571V6.04675C37.6783 7.35584 46.3878 16.8935 46.3878 16.8935L46.4194 4.17662C46.4194 3.64675 46.6087 3.33506 47.0505 3.11688C47.2398 3.02338 47.7132 2.99221 47.871 2.96104H48.0287V2.21299H43.3584V2.99221H43.2953ZM22.5628 19.9169C20.8903 19.2312 18.6182 18.1403 16.6617 16.4883C14.3581 14.5558 12.2439 11.3143 11.2341 9.81818C11.2341 9.81818 9.53001 7.23117 9.15134 6.67013C9.87713 6.10909 14.0741 2.52467 14.8315 2.05714C15.9675 1.30909 17.0089 0.935064 17.8609 0.997402L18.0502 1.02857V0.0935059H11.1078V0.997402H11.2656C11.9914 1.05974 12.4963 1.18441 12.6856 1.43377C12.7803 1.52727 12.8119 1.65195 12.8119 1.80779C12.8119 1.83896 12.8119 1.87013 12.8119 1.9013C12.7803 2.24416 12.1176 3.14805 9.24601 5.48571C9.24601 5.48571 6.18504 7.91688 5.23835 8.63377V2.46234C5.23835 1.80779 5.45925 1.37143 5.93259 1.18441C6.12193 1.12208 6.59527 1.02857 7.69974 1.02857H7.85753V0.0935059H0V0.997402H0.157782C1.89338 0.997402 2.36672 1.34026 2.49295 1.52727C2.68229 1.80779 2.77696 2.33766 2.77696 3.02338V14.587C2.77696 15.4909 2.55606 16.1143 2.17739 16.3948C1.83027 16.6753 1.13603 16.7688 0.189338 16.7688H0.0315563V17.6727H7.79441V16.7377H7.06862C5.83792 16.7377 5.26991 16.239 5.26991 15.2416V9.97403C5.36458 9.88052 6.94239 8.54026 7.16329 8.35325C7.35263 8.63377 10.6029 12.9039 10.6029 12.9039C13.9795 17.7351 17.8609 19.7922 20.8587 20.5091C20.8903 20.5091 20.9534 20.5403 20.985 20.5403C21.0481 20.5403 21.0796 20.5714 21.1427 20.5714C21.269 20.6026 21.3952 20.6338 21.553 20.6649C24.6139 21.3195 26.4442 20.8208 26.4442 20.8208C24.9611 20.6338 23.1308 20.1351 22.5628 19.9169ZM50.3008 2.21299L50.2692 2.36883C49.9852 4.92467 49.9852 4.92467 49.9852 4.95584V5.11169H50.6795L50.711 4.98701C50.995 4.11428 51.1528 3.86493 51.279 3.77143C51.3737 3.70909 51.6262 3.61558 52.1626 3.61558H55.3498C55.4445 3.61558 55.476 3.70909 55.476 3.8961V14.213C55.476 14.6493 55.3814 14.961 55.1289 15.1792C54.7818 15.5221 54.056 15.5221 54.056 15.5221H53.8982V16.2701H58.9788V15.5221H58.821C58.821 15.5221 58.0952 15.5221 57.6219 15.1169C57.4641 14.9922 57.3694 14.6493 57.3694 14.213V3.86493C57.3694 3.58441 57.4956 3.58441 57.5587 3.58441H60.7459C61.0615 3.58441 61.3455 3.64675 61.598 3.77143C62.0082 3.98961 62.2291 4.76883 62.2606 4.92467V5.08052H63.0496L62.734 2.18182H50.3008V2.21299ZM105.777 2.86753H105.935C105.935 2.86753 106.345 2.8987 106.66 3.02338C107.008 3.14805 107.008 3.27273 107.008 3.42857C107.008 3.61558 106.597 3.98961 106.187 4.36364L101.959 8.1974C101.769 8.35325 101.706 8.41558 101.675 8.44675C101.675 8.38441 101.643 8.32208 101.643 8.32208V4.02078C101.643 3.52208 101.801 3.27273 102.243 3.05454C102.527 2.92987 102.968 2.8987 102.968 2.8987H103.126V2.05714H98.0771V2.83636L98.866 3.02338C99.4971 3.17922 99.7496 3.52208 99.7496 4.17662V14.2442C99.7496 14.6182 99.6549 14.8987 99.4971 15.1169C99.3393 15.3351 98.582 15.4597 98.2033 15.5221L98.0771 15.5532V16.3325H103.505V15.5221H103.347C102.59 15.4597 102.085 15.2104 101.927 15.0234C101.738 14.774 101.675 14.4312 101.675 13.9325V9.94286C101.675 9.81818 101.706 9.81818 101.738 9.81818C101.738 9.81818 101.864 9.84935 102.179 10.1922L108.017 16.3013H111.268V15.4597H111.078C110.195 15.4597 109.28 15.0545 108.617 14.3377L103.379 8.85195C103.189 8.66493 103.158 8.57143 103.158 8.57143C103.158 8.57143 103.189 8.47792 103.599 8.1039L108.301 3.92727C108.68 3.58441 109.09 3.36623 109.406 3.21039C109.784 2.99221 110.731 2.86753 111.078 2.83636H111.236V2.05714H105.777V2.86753ZM121.397 2.05714V2.77403H121.555C122.06 2.80519 122.943 2.96104 122.943 3.52208C122.943 3.77143 122.849 4.02078 122.691 4.3013L120.577 7.72987C120.387 8.07273 120.293 8.13506 120.293 8.13506C120.293 8.1039 120.135 8.01039 119.819 7.48052L117.61 3.95844C117.358 3.58441 117.326 3.3974 117.326 3.33506C117.326 3.14805 117.579 2.86753 118.336 2.80519H118.494V2.05714H113.666V2.80519H113.824C114.802 2.8987 114.96 3.17922 115.181 3.52208L115.244 3.61558L118.526 8.82078C118.873 9.38182 118.967 9.66234 118.967 9.78701V14.0571C118.967 14.4935 118.904 14.8052 118.778 14.9922C118.683 15.1481 118.147 15.4909 117.516 15.5221H117.358V16.3013H122.439V15.4909H122.281C121.744 15.4597 121.334 15.3039 121.082 15.0234C120.892 14.8364 120.798 14.4935 120.798 14.026V9.47532C120.798 9.31948 120.892 9.07013 121.113 8.75844L124.016 4.27013L124.679 3.36623C124.837 3.17922 124.995 3.05454 125.216 2.92987C125.436 2.80519 125.72 2.83636 125.752 2.83636H125.941V2.05714H121.397ZM95.0792 12.7169C94.8268 13.0597 94.2903 13.7455 93.4383 14.4C92.4601 15.1481 91.1662 15.5532 89.62 15.5532C87.9791 15.5532 86.6221 14.8987 85.5808 13.6208C84.5394 12.3117 84.003 10.7221 84.003 8.88312C84.003 6.95065 84.5079 5.45454 85.4545 4.42597C86.4328 3.36623 87.7897 2.83636 89.5569 2.83636C90.9138 2.83636 91.9867 3.17922 92.8072 3.8961C93.6276 4.58182 94.2588 5.36104 94.7006 6.2026L94.8899 6.57662L94.9214 6.67013H95.0161H95.7104L95.3632 2.96104H94.669L94.6374 3.08571C94.6374 3.17922 94.5743 3.3039 94.5112 3.3039C94.3534 3.33506 94.3219 3.3039 93.9432 3.08571L93.8801 3.05454C93.249 2.68052 92.5863 2.4 91.8605 2.21299C91.1347 1.9948 90.2511 1.9013 89.2729 1.9013C87.1586 1.9013 85.3914 2.64935 84.0345 4.11428C82.646 5.57922 81.9518 7.38701 81.9518 9.50649C81.9518 11.439 82.5829 13.0909 83.8452 14.4312C85.1074 15.7714 87.0639 16.4571 89.62 16.4571C90.8822 16.4571 92.0814 16.2701 93.2174 15.9273C94.3534 15.5844 94.953 15.2104 94.953 15.1792L95.0161 15.1481L95.0477 15.0857C95.8366 12.8104 95.8366 12.8104 95.8366 12.7481V12.5922H95.1108L95.0792 12.7169ZM75.7352 2.86753L76.177 2.92987L76.6819 2.99221C77.3446 3.14805 77.6917 3.64675 77.6917 4.3948V10.7844C77.6917 12.2805 77.313 13.4026 76.5872 14.1818C75.8614 14.961 74.7885 15.3351 73.3369 15.3351C71.8538 15.3351 70.6862 14.961 69.8657 14.1818C69.0452 13.4026 68.6666 12.3429 68.6666 10.9403V4.08312C68.6666 3.70909 68.7297 3.45974 68.8244 3.3039C68.919 3.17922 69.1084 2.99221 69.3608 2.92987L70.0866 2.86753H70.2444V2.71169V2.05714H65.2269V2.8987H65.3847C65.5425 2.8987 66.0474 2.8987 66.2999 3.02338C66.6785 3.21039 66.7416 3.42857 66.7416 3.95844V10.5351C66.7416 14.4935 68.919 16.4883 73.1791 16.4883C74.9778 16.4883 76.3663 15.9896 77.3761 14.9922C78.3859 13.9948 78.8908 12.5922 78.8908 10.8468V4.3948C78.8908 3.98961 78.9539 3.70909 79.0802 3.49091C79.2064 3.27273 79.3957 2.92987 80.3109 2.86753H80.4686V2.05714H75.7352V2.86753Z" fill="black"/><path d="M177.41 2.30649C175.706 0.779221 173.56 0 171.067 0H163.02V0.872727H163.178C163.178 0.872727 163.556 0.872727 164.093 1.02857C164.377 1.09091 164.629 1.24675 164.85 1.46493C164.977 1.62078 165.166 1.96364 165.166 2.77403V14.8987C165.166 15.9273 164.819 16.4571 163.967 16.7065L163.083 16.8623V17.0182V17.7351H170.373C176.842 17.7351 180.124 14.4935 180.124 8.04156C180.029 5.7974 179.145 3.86493 177.41 2.30649ZM176.053 14.8987C174.885 16.1143 173.244 16.7377 171.162 16.7377C170.026 16.7377 169.079 16.5818 168.385 16.3013C167.722 16.0208 167.406 15.6468 167.406 15.1792V2.30649C167.406 1.74545 167.533 1.37143 167.753 1.21558C167.911 1.09091 168.353 0.966234 169.584 0.966234C172.045 0.966234 174.033 1.74545 175.548 3.24156C177.063 4.76883 177.82 6.82597 177.82 9.35065C177.852 11.7818 177.252 13.6519 176.053 14.8987ZM219.222 8.35325C219.222 8.35325 219.19 8.35325 219.159 8.32208C219.569 8.1039 219.916 7.72987 220.295 7.23117C220.61 6.79481 220.768 6.23377 220.768 5.48571C220.768 4.42597 220.358 3.55325 219.569 2.96104C218.78 2.33766 217.612 2.02597 216.129 2.02597H210.859V2.8987H211.017C211.08 2.8987 212.5 2.92987 212.5 4.14545V13.9013C212.5 14.3065 212.5 14.774 212.311 14.961C211.806 15.4597 210.986 15.5221 210.986 15.5221H210.828V16.3013H216.95C218.559 16.3013 219.79 15.8649 220.673 14.9922C221.557 14.1195 221.999 13.0909 221.999 11.9688C221.999 11.0649 221.778 10.3169 221.305 9.72468C220.831 9.13247 220.137 8.66493 219.222 8.35325ZM214.394 3.8026C214.394 3.52208 214.457 3.3039 214.583 3.21039C214.678 3.14805 214.867 3.05455 215.435 3.05455C216.508 3.05455 217.423 3.33506 218.086 3.86493C218.685 4.36364 219.001 4.8 219.001 5.7974C219.001 6.51429 218.875 7.26234 217.96 7.76104C217.392 8.07273 216.729 8.13507 215.624 8.13507C214.899 8.13507 214.646 8.1039 214.552 8.04156C214.488 8.01039 214.425 7.88571 214.425 7.66753V3.8026H214.394ZM219.253 14.7429C218.654 15.2104 217.896 15.4597 216.918 15.4597C215.498 15.4597 214.993 15.3351 214.772 15.2104C214.52 15.0545 214.362 14.7429 214.362 14.2442V9.44416C214.362 9.31948 214.394 9.19481 214.678 9.16364L215.593 9.1013C217.234 9.1013 218.401 9.41299 219.096 10.0052C219.758 10.5974 220.105 11.5013 220.105 12.6545C220.137 13.5584 219.853 14.2442 219.253 14.7429ZM230.519 2.05714V2.80519H230.677C231.56 2.86753 232.065 3.11688 232.065 3.55325C232.065 3.8026 231.971 4.05195 231.813 4.33247L229.699 7.76104C229.541 8.01039 229.446 8.13507 229.415 8.16623C229.351 8.13507 229.225 8.01039 228.91 7.54286L226.701 4.02078C226.511 3.70909 226.417 3.52208 226.417 3.3974C226.417 3.27273 226.606 2.92987 227.427 2.86753H227.584V2.05714H222.756V2.83636H222.914C223.861 2.92987 224.05 3.21039 224.271 3.52208L224.334 3.61558L227.584 8.82078C227.931 9.38182 227.995 9.66234 227.995 9.78701V14.0571C227.995 14.4935 227.931 14.8052 227.805 14.9922C227.711 15.1481 227.206 15.4909 226.543 15.5221H226.385V16.3013H231.529V15.4909H231.371C230.835 15.4597 230.424 15.3039 230.172 15.0234C229.983 14.8364 229.888 14.4935 229.888 14.026V9.47532C229.888 9.38182 229.951 9.16364 230.203 8.78961L233.107 4.3013L233.738 3.3974C233.896 3.21039 234.053 3.05455 234.274 2.96104C234.495 2.86753 234.779 2.86753 234.811 2.86753H235V2.05714H230.519ZM194.071 13.4961C193.851 13.9013 193.156 14.4312 192.525 14.6805C191.705 14.9922 190.663 15.1792 190.095 15.1792H186.877C186.656 15.1792 186.624 15.1792 186.624 14.8987V9.84935C186.624 9.72468 186.656 9.63117 186.877 9.63117H191.042C191.736 9.63117 191.989 9.78701 192.178 10.2857C192.336 10.6909 192.367 11.1584 192.367 11.1584V11.3143H193.156V6.63896H192.399V6.7948C192.399 6.7948 192.367 7.26234 192.147 7.6987C191.894 8.22857 191.452 8.44675 190.695 8.44675H187.098C186.782 8.44675 186.687 8.41558 186.687 8.41558C186.687 8.41558 186.656 8.35325 186.656 8.07273V3.77143C186.656 3.49091 186.656 3.27273 186.687 3.24156H190.632C191.831 3.24156 192.494 3.42857 192.715 3.61558C193.346 4.11429 193.283 5.01818 193.283 5.04935V5.23636L194.103 5.26753V5.11169V2.05714H183.058V2.8987L183.816 2.99221C184.1 3.05455 184.352 3.21039 184.51 3.42857C184.605 3.58442 184.731 3.8961 184.731 4.55065V13.9013C184.731 14.6182 184.636 14.8987 184.573 14.9922C184.51 15.0857 184.321 15.2416 183.847 15.4286C183.595 15.5532 183.216 15.5844 183.216 15.5844H183.058V16.3325H193.346L195.144 13.4338H194.135L194.071 13.4961Z" fill="#BE955B"/><path d="M215.782 19.387C215.751 19.387 212.69 19.2 210.386 17.1429C208.808 15.7403 207.357 13.5273 206.473 12.2182L206.347 12L205.211 10.0987C205.211 10.0987 204.895 9.44415 204.769 9.25714C205.526 9.10129 206.347 8.66493 206.915 8.04155C207.451 7.44935 207.672 6.54545 207.672 5.57922C207.672 3.24155 206.158 2.02597 203.223 2.02597H197.196V2.80519L197.322 2.83636C198.395 2.96104 199.026 3.45974 199.026 4.17662V13.7766C199.026 14.4312 198.931 14.8364 198.742 15.0545C198.552 15.2727 198.332 15.3974 198.111 15.4909L197.448 15.6779V15.8026V16.3636H202.907V15.5844H202.749L202.055 15.4909C201.645 15.3974 201.393 15.2727 201.172 15.1169C200.951 14.961 200.856 14.6805 200.856 14.2442V10.0052C200.856 9.81818 200.888 9.75584 200.919 9.75584C200.951 9.75584 201.045 9.6935 201.519 9.6935C201.519 9.6935 202.686 9.6935 202.781 9.6935C202.876 9.81818 205.905 14.3688 205.905 14.3688C210.102 20.6649 215.751 19.6987 215.814 19.6675L216.792 19.4805L215.782 19.387ZM200.888 3.61558C200.888 3.3974 200.919 3.24155 201.014 3.14805C201.045 3.11688 201.172 2.9922 201.866 2.9922C203.033 2.9922 204.359 3.27272 204.958 3.77143C205.59 4.3013 205.874 5.01818 205.874 6.01558C205.874 6.91948 205.621 7.60519 205.148 8.01039C204.611 8.47792 203.696 8.66493 203.002 8.66493H201.645C201.14 8.66493 201.014 8.60259 200.982 8.57142C200.951 8.54026 200.856 8.41558 200.856 8.04155V3.61558H200.888Z" fill="#BE955B"/><path d="M158.476 17.8286C159.391 17.8286 160.117 18.5455 160.117 19.4494C160.117 20.3844 159.391 21.1013 158.444 21.1013C157.498 21.1013 156.772 20.3844 156.772 19.4494C156.772 18.5455 157.529 17.8286 158.476 17.8286ZM158.444 18.1091C157.687 18.1091 157.151 18.7013 157.151 19.4494C157.151 20.1974 157.719 20.7896 158.476 20.7896C159.202 20.7896 159.77 20.1974 159.77 19.4494C159.77 18.7013 159.202 18.1091 158.444 18.1091ZM158.16 20.3221H157.845V18.6078C158.034 18.5766 158.192 18.5455 158.444 18.5455C158.728 18.5455 158.886 18.6078 158.981 18.6701C159.076 18.7325 159.17 18.8883 159.17 19.0442C159.17 19.2623 159.012 19.387 158.855 19.4494V19.4805C159.012 19.5429 159.076 19.6675 159.139 19.8857C159.202 20.1351 159.233 20.2286 159.265 20.2909H158.949C158.886 20.2286 158.855 20.0727 158.792 19.8546C158.76 19.6675 158.634 19.574 158.413 19.574H158.192V20.3221H158.16ZM158.16 19.387H158.381C158.602 19.387 158.823 19.3247 158.823 19.1377C158.823 18.9818 158.697 18.8572 158.413 18.8572C158.287 18.8572 158.224 18.8572 158.16 18.8883V19.387Z" fill="#BE955B"/><path d="M20.0067 30.2649C20.0067 30.1091 19.9436 30.0468 19.8174 29.9844C19.7227 29.9533 19.5965 29.9844 19.5965 29.8909C19.5965 29.8598 19.6281 29.8286 19.6912 29.8286C19.7227 29.8286 19.849 29.8598 20.133 29.8598C20.4485 29.8598 20.7325 29.8286 21.0165 29.8286C21.5846 29.8286 21.9317 30.1714 21.9317 30.639C21.9317 31.2624 21.4583 31.7611 20.701 31.7611C20.4801 31.7611 20.3854 31.7299 20.3854 31.6675C20.3854 31.6364 20.417 31.6052 20.4485 31.6052C20.4801 31.6052 20.5432 31.6364 20.6063 31.6364C21.1428 31.6364 21.5214 31.2312 21.5214 30.7325C21.5214 30.2649 21.2374 29.9844 20.6694 29.9844C20.4485 29.9844 20.3854 30.0156 20.3539 30.2649L20.0699 32.5714C20.0383 32.7273 20.0383 32.8208 20.0383 32.8831C20.0383 33.0701 20.133 33.1636 20.2907 33.226C20.417 33.2572 20.5432 33.226 20.5432 33.3195C20.5432 33.3507 20.5116 33.3818 20.4485 33.3818C20.3854 33.3818 20.2276 33.3507 19.9121 33.3507C19.5649 33.3507 19.4072 33.3818 19.3756 33.3818C19.3125 33.3818 19.3125 33.3507 19.3125 33.3195C19.3125 33.226 19.4387 33.2572 19.5334 33.1948C19.6596 33.1325 19.6912 33.0078 19.6912 32.8208L19.9752 30.4831C20.0067 30.3585 20.0067 30.2961 20.0067 30.2649Z" fill="black"/><path d="M22.4996 32.0727C22.4996 32.0104 22.4996 31.9169 22.4996 31.8545C22.4996 31.6364 22.4365 31.5428 22.3418 31.5428C22.2787 31.5428 22.184 31.6052 22.1209 31.7299C22.0894 31.8234 22.0894 31.9169 22.0262 31.9169C21.9947 31.9169 21.9631 31.8857 21.9631 31.8234C21.9631 31.6052 22.2156 31.2 22.4365 31.2C22.5943 31.2 22.7205 31.387 22.7205 31.6987H22.752C22.9414 31.3558 23.1623 31.1688 23.4147 31.1688C23.541 31.1688 23.6356 31.2 23.6356 31.2935C23.6356 31.3247 23.6356 31.3558 23.6041 31.4182L23.541 31.6052C23.541 31.6364 23.5094 31.6675 23.4778 31.6675C23.3832 31.6675 23.4147 31.4493 23.2254 31.4493C23.0361 31.4493 22.9414 31.6675 22.8467 32.1974L22.6889 33.2883C22.6889 33.3506 22.6574 33.3818 22.468 33.3818C22.3734 33.3818 22.3418 33.3506 22.3418 33.3195C22.3418 33.2883 22.3418 33.226 22.3418 33.1948L22.4996 32.0727Z" fill="black"/><path d="M23.9514 32.5091C23.9514 32.9143 24.1723 33.1325 24.5509 33.1325C24.9612 33.1325 25.0874 32.9143 25.1821 32.9143C25.2136 32.9143 25.2452 32.9455 25.2452 32.9766C25.2452 33.0701 24.8349 33.4442 24.33 33.4442C23.8567 33.4442 23.6042 33.1636 23.6042 32.6649C23.6042 32.2909 23.762 31.8857 24.0776 31.574C24.2985 31.3247 24.5509 31.2 24.8349 31.2C25.1189 31.2 25.2767 31.3247 25.2767 31.6052C25.2767 32.0104 24.8034 32.3221 23.9829 32.3533C23.9829 32.3844 23.9514 32.4468 23.9514 32.5091ZM24.2038 31.6364C24.046 31.8546 23.9829 32.0416 23.9829 32.1351C23.9829 32.1974 24.0145 32.1974 24.0776 32.1974C24.4563 32.1974 24.9296 31.9169 24.9296 31.5429C24.9296 31.387 24.8034 31.2935 24.6456 31.2935C24.5194 31.2935 24.3616 31.4182 24.2038 31.6364Z" fill="black"/><path d="M25.6868 32.9143C25.8131 32.9143 25.8446 33.0078 25.8762 33.1013C25.9393 33.226 26.034 33.2883 26.1602 33.2883C26.4126 33.2883 26.5704 33.1325 26.5704 32.9143C26.5704 32.7273 26.4442 32.5714 26.2548 32.3844C26.0024 32.1351 25.8131 31.9792 25.8131 31.6987C25.8131 31.387 26.0655 31.1688 26.5073 31.1688C26.7913 31.1688 26.9491 31.2935 26.9491 31.4182C26.9491 31.5117 26.886 31.574 26.7913 31.574C26.5704 31.574 26.602 31.2935 26.3495 31.2935C26.2233 31.2935 26.0971 31.387 26.0971 31.5117C26.0971 31.6675 26.2233 31.7922 26.4442 32.0104C26.6966 32.2597 26.886 32.4156 26.886 32.7584C26.886 33.1013 26.5704 33.3818 26.1286 33.3818C25.7815 33.3818 25.5291 33.226 25.5291 33.0701C25.5291 32.9766 25.5606 32.9143 25.6868 32.9143Z" fill="black"/><path d="M27.5803 32.5091C27.5803 32.9143 27.8012 33.1325 28.1798 33.1325C28.5901 33.1325 28.7163 32.9143 28.811 32.9143C28.8425 32.9143 28.8741 32.9455 28.8741 32.9766C28.8741 33.0701 28.4638 33.4442 27.9589 33.4442C27.4856 33.4442 27.2332 33.1636 27.2332 32.6649C27.2332 32.2909 27.3909 31.8857 27.7065 31.574C27.9274 31.3247 28.1798 31.2 28.4638 31.2C28.7479 31.2 28.9056 31.3247 28.9056 31.6052C28.9056 32.0104 28.4323 32.3221 27.6118 32.3533C27.5803 32.3844 27.5803 32.4468 27.5803 32.5091ZM27.8327 31.6364C27.6749 31.8546 27.6118 32.0416 27.6118 32.1351C27.6118 32.1974 27.6434 32.1974 27.7065 32.1974C28.0852 32.1974 28.5585 31.9169 28.5585 31.5429C28.5585 31.387 28.4323 31.2935 28.2745 31.2935C28.1483 31.2935 27.9905 31.4182 27.8327 31.6364Z" fill="black"/><path d="M29.5683 32.0727C29.5999 31.9169 29.6314 31.8234 29.6314 31.7299C29.6314 31.6052 29.5683 31.5429 29.4736 31.5429C29.2843 31.5429 29.2843 31.8234 29.1581 31.8234C29.1265 31.8234 29.095 31.7922 29.095 31.7611C29.095 31.7299 29.1581 31.574 29.2528 31.4182C29.379 31.2624 29.4736 31.2 29.5683 31.2C29.7261 31.2 29.7892 31.2935 29.7892 31.5117C29.7892 31.5429 29.7892 31.6052 29.7892 31.6987H29.8208C30.1048 31.3559 30.4203 31.2 30.6728 31.2C30.9568 31.2 31.1146 31.387 31.1146 31.6987C31.1146 31.7611 31.1146 31.8546 31.083 31.9792L30.9884 32.7585C30.9884 32.8831 30.9884 32.9455 30.9884 32.9455C30.9884 33.0078 31.0199 33.0701 31.083 33.0701C31.2408 33.0701 31.3039 32.8208 31.4301 32.8208C31.4617 32.8208 31.4617 32.852 31.4617 32.8831C31.4617 32.9766 31.1146 33.3818 30.8621 33.3818C30.7043 33.3818 30.6412 33.2883 30.6412 33.1013C30.6412 33.0701 30.6412 33.0078 30.6412 32.8831L30.7359 32.0104C30.7359 31.8546 30.7675 31.7611 30.7675 31.7299C30.7675 31.4805 30.6728 31.387 30.4519 31.387C30.1363 31.387 29.9154 31.6987 29.7892 32.2598L29.5999 33.2883C29.5999 33.3818 29.5683 33.3818 29.4105 33.3818C29.3159 33.3818 29.2528 33.3507 29.2528 33.3195C29.2528 33.2883 29.2528 33.2572 29.2528 33.1948L29.5683 32.0727Z" fill="black"/><path d="M32.0298 31.5117V31.4805C32.0298 31.4493 31.9982 31.4493 31.9667 31.4493H31.8405C31.7773 31.4493 31.7773 31.4493 31.7773 31.4182C31.7773 31.3558 31.9351 31.2935 32.1245 31.1377C32.3138 30.9818 32.3769 30.7948 32.4716 30.7948C32.5031 30.7948 32.5347 30.826 32.5347 30.8571C32.5347 30.8571 32.5347 30.8883 32.5347 30.9195L32.4716 31.2312C32.4716 31.2312 32.4716 31.2312 32.4716 31.2623C32.4716 31.2935 32.5031 31.2935 32.5347 31.2935H32.9134C32.9449 31.2935 32.9765 31.3247 32.9765 31.3558V31.4182C32.9765 31.4493 32.9449 31.4805 32.9134 31.4805H32.5347C32.4716 31.4805 32.4716 31.4805 32.44 31.5428L32.2822 32.5091C32.2507 32.6649 32.2507 32.7896 32.2507 32.8831C32.2507 33.039 32.3138 33.1013 32.44 33.1013C32.6609 33.1013 32.8187 32.8208 32.8818 32.8208C32.9134 32.8208 32.9449 32.8519 32.9449 32.8831C32.9449 32.9143 32.8818 33.0078 32.7556 33.1325C32.5663 33.3195 32.3769 33.4442 32.2191 33.4442C31.9982 33.4442 31.872 33.2883 31.872 33.0078C31.872 32.8831 31.9036 32.7584 31.9036 32.6026L32.0298 31.5117Z" fill="black"/><path d="M33.4182 32.5091C33.4182 32.9143 33.6391 33.1325 34.0177 33.1325C34.428 33.1325 34.5542 32.9143 34.6489 32.9143C34.6804 32.9143 34.712 32.9455 34.712 32.9766C34.712 33.0701 34.3017 33.4442 33.7968 33.4442C33.3235 33.4442 33.071 33.1636 33.071 32.6649C33.071 32.2909 33.2288 31.8857 33.5444 31.574C33.7653 31.3247 34.0177 31.2 34.3017 31.2C34.5857 31.2 34.7435 31.3247 34.7435 31.6052C34.7435 32.0104 34.2702 32.3221 33.4497 32.3533C33.4182 32.3844 33.4182 32.4468 33.4182 32.5091ZM33.6706 31.6364C33.5128 31.8546 33.4497 32.0416 33.4497 32.1351C33.4497 32.1974 33.4813 32.1974 33.5444 32.1974C33.9231 32.1974 34.3964 31.9169 34.3964 31.5429C34.3964 31.387 34.2702 31.2935 34.1124 31.2935C33.9862 31.2935 33.8284 31.4182 33.6706 31.6364Z" fill="black"/><path d="M35.5956 33.413C35.2485 33.413 35.0276 33.1636 35.0276 32.7273C35.0276 32.3844 35.1538 32.0104 35.4378 31.6675C35.6903 31.3247 35.9743 31.1688 36.2267 31.1688C36.353 31.1688 36.4476 31.2 36.5738 31.2312L36.7316 30.0779C36.7316 29.9844 36.7316 29.9221 36.7316 29.9221C36.7316 29.8286 36.7001 29.7974 36.5738 29.7974C36.5107 29.7974 36.4476 29.7974 36.3845 29.7974C36.353 29.7974 36.3214 29.7662 36.3214 29.7351C36.3214 29.6727 36.4161 29.6727 36.5738 29.6416C36.8263 29.6104 36.9841 29.5792 37.0156 29.5792C37.0472 29.5792 37.0787 29.5792 37.0787 29.6416C37.0787 29.7039 37.0472 29.8597 37.0156 30.1091L36.7001 32.7896C36.7001 32.8208 36.7001 32.8831 36.7001 32.9143C36.7001 33.0078 36.7316 33.0701 36.7947 33.0701C36.9525 33.0701 37.0472 32.7896 37.1419 32.7896C37.1734 32.7896 37.205 32.8208 37.205 32.852C37.205 32.8831 37.1419 32.9766 37.0156 33.1325C36.8894 33.2883 36.7947 33.3507 36.6685 33.3507C36.5107 33.3507 36.4161 33.1948 36.4161 32.8831C36.4161 32.852 36.4161 32.852 36.4161 32.8208C36.1952 33.226 35.9112 33.413 35.5956 33.413ZM36.5107 31.7299C36.5107 31.6364 36.5423 31.574 36.5423 31.5429C36.5423 31.3558 36.4476 31.2935 36.2267 31.2935C36.0374 31.2935 35.8165 31.4494 35.6587 31.6987C35.4694 32.0416 35.3432 32.3532 35.3432 32.6026C35.3432 32.9766 35.5009 33.1636 35.7534 33.1636C36.1005 33.1636 36.3845 32.8831 36.4476 32.2597L36.5107 31.7299Z" fill="black"/><path d="M39.1929 30.1091C39.1929 30.0467 39.1929 29.9844 39.1929 29.9532C39.1929 29.8597 39.1613 29.8286 39.0667 29.8286C39.0036 29.8286 38.9404 29.8286 38.8773 29.8286C38.8458 29.8286 38.8142 29.7974 38.8142 29.7662C38.8142 29.7039 38.9089 29.7039 39.0667 29.6727C39.3507 29.6415 39.4769 29.6104 39.5085 29.6104C39.54 29.6104 39.5716 29.6416 39.5716 29.7039C39.5716 29.7662 39.54 29.8909 39.4769 30.1714L39.2244 31.6675C39.5085 31.3247 39.7609 31.1688 40.0765 31.1688C40.4551 31.1688 40.676 31.4493 40.676 31.8545C40.676 32.1662 40.5498 32.5091 40.2658 32.8519C39.9818 33.226 39.6347 33.413 39.256 33.413C38.9089 33.413 38.688 33.226 38.688 32.9766C38.688 32.9454 38.688 32.8831 38.688 32.7896L39.1929 30.1091ZM39.2876 31.8857C39.1613 32.1974 39.0667 32.6026 39.0667 32.9454C39.0667 33.1636 39.1613 33.2883 39.3822 33.2883C39.6031 33.2883 39.824 33.1636 40.0134 32.9454C40.2342 32.6649 40.392 32.2909 40.392 31.948C40.392 31.6364 40.2027 31.4182 39.9187 31.4182C39.6347 31.4493 39.4138 31.6052 39.2876 31.8857Z" fill="black"/><path d="M42.5064 31.8545C42.5064 31.5429 42.3802 31.4494 42.3802 31.3247C42.3802 31.2312 42.4433 31.1688 42.538 31.1688C42.6642 31.1688 42.7273 31.2935 42.7273 31.5117C42.7273 31.7922 42.6326 32.3844 42.3171 33.1325C42.0015 33.9429 41.6544 34.3481 41.2442 34.3481C41.0233 34.3481 40.897 34.2234 40.897 34.0987C40.897 34.0052 40.9601 33.9429 41.0548 33.9429C41.181 33.9429 41.2442 34.0987 41.4019 34.0987C41.5597 34.0987 41.6859 34.0052 41.8437 33.8182C42.0331 33.5688 42.0962 33.3507 42.0962 33.1948C42.0962 33.0078 41.97 32.6026 41.6859 32.0416C41.5282 31.6987 41.4019 31.5429 41.2442 31.5429C40.9917 31.5429 41.0548 31.9169 40.9286 31.9169C40.897 31.9169 40.8655 31.8857 40.8655 31.7922C40.8655 31.5117 41.0233 31.1377 41.2757 31.1377C41.5913 31.1377 41.9384 31.6675 42.3171 32.6961C42.4117 32.3844 42.5064 32.1039 42.5064 31.8545Z" fill="black"/><path d="M214.709 29.8286H214.488V30.1403H214.741C214.867 30.1403 214.93 30.0779 214.93 29.9844C214.899 29.8597 214.835 29.8286 214.709 29.8286ZM214.899 30.5766L214.678 30.2649H214.488V30.5766H214.331V29.6727H214.741C214.962 29.6727 215.088 29.7974 215.088 29.9532C215.088 30.1091 214.993 30.2026 214.867 30.2338L215.119 30.5766H214.899Z" fill="black"/><path d="M214.646 29.2987C214.173 29.2987 213.794 29.6727 213.794 30.1403C213.794 30.6078 214.173 30.9818 214.646 30.9818C215.119 30.9818 215.498 30.6078 215.498 30.1403C215.498 29.6727 215.119 29.2987 214.646 29.2987ZM214.646 31.1377C214.078 31.1377 213.636 30.7013 213.636 30.1403C213.636 29.5792 214.078 29.1429 214.646 29.1429C215.214 29.1429 215.656 29.5792 215.656 30.1403C215.656 30.7013 215.182 31.1377 214.646 31.1377Z" fill="black"/><path d="M168.574 31.7299C167.122 31.3247 166.523 31.1688 166.523 30.4519C166.523 30.1403 166.617 29.9221 166.838 29.6727C167.059 29.4545 167.501 29.2987 168.037 29.2987C169.268 29.2987 170.246 30.2338 170.246 30.9506H170.625V29.0805H170.309C170.183 29.4857 169.962 29.361 169.868 29.2987C169.741 29.2364 169.173 28.8623 168.006 28.8623C166.744 28.8623 165.418 29.7351 165.418 31.0442C165.418 31.574 165.608 31.9169 165.892 32.1974C166.302 32.6026 166.901 32.8208 168.006 33.1013C169.173 33.3818 170.025 33.6623 170.025 34.4416C170.025 34.6597 169.899 34.9403 169.71 35.1273C169.426 35.4078 169.11 35.5636 168.195 35.5636C166.838 35.5636 165.892 34.4727 165.734 33.4753H165.292V35.8442H165.702C165.797 35.4078 166.081 35.4078 166.27 35.5013C166.396 35.5636 167.059 36.0312 168.321 36.0312C169.836 36.0312 171.067 35.1584 171.067 33.9117C171.067 33.3195 170.846 32.9455 170.562 32.6338C170.215 32.2597 169.489 31.9792 168.574 31.7299Z" fill="black"/><path d="M89.8723 35.0026C89.3674 35.252 88.7363 35.252 88.326 35.252H87.7265V29.5481H88.326C88.9887 29.5481 89.683 29.5481 90.1879 29.8286C90.8506 30.2026 91.2923 30.9818 91.2923 32.3533C91.2608 33.8182 90.6612 34.6286 89.8723 35.0026ZM88.2945 29.0182H86.906H86.7482H85.0442V29.5169C85.1073 29.5169 86.2433 29.6727 86.2433 29.6727V31.9169V32.6961V35.2208C86.2433 35.2208 85.0757 35.3766 85.0442 35.3766V35.8753H86.7482H86.906H88.6416C90.1879 35.8753 91.2923 35.3143 92.0181 34.6286C92.4915 34.1299 92.9017 33.3507 92.9017 32.2286C92.9017 31.4182 92.5862 30.6701 92.0181 30.1091C91.2608 29.3299 90.0932 29.0182 88.2945 29.0182Z" fill="black"/><path d="M132.252 35.0026C131.748 35.252 131.116 35.252 130.706 35.252H130.107V29.5481H130.706C131.369 29.5481 132.063 29.5481 132.568 29.8286C133.231 30.2026 133.673 30.9818 133.673 32.3533C133.641 33.8182 133.041 34.6286 132.252 35.0026ZM130.675 29.0182H129.286H129.128H127.393V29.5169L128.592 29.6727V31.9169V32.6961V35.2208L127.393 35.3766V35.8753H129.128H129.286H131.022C132.568 35.8753 133.704 35.3143 134.398 34.6286C134.872 34.1299 135.313 33.3507 135.313 32.2286C135.313 31.4182 134.998 30.6701 134.43 30.1091C133.641 29.3299 132.473 29.0182 130.675 29.0182Z" fill="black"/><path d="M156.835 29.0182H156.456H156.362H154.594V29.5169L155.794 29.6727V31.9169V32.6961V35.2208L154.594 35.3766V35.8753H156.362H156.456H156.835H157.214H161.127V33.5065H160.59C160.59 34.5039 160.243 35.3766 159.044 35.3766H157.277V34.8779V34.5974V33.6V32.9455V32.7273V32.6649H158.287C158.728 32.6649 159.107 32.9143 159.107 33.413V33.6935H159.58V32.5403V32.1974V31.0442H159.107V31.3247C159.107 31.8234 158.76 32.0727 158.287 32.0727H157.277V31.387V29.6104H159.044C160.275 29.6104 160.59 30.4831 160.59 31.4805H161.127V29.1117H157.277H156.835V29.0182Z" fill="black"/><path d="M176.715 29.0182H176.337H176.242H174.475V29.5169L175.674 29.6727V31.9169V32.6961V35.2208L174.475 35.3766V35.8753H176.242H176.337H176.715H177.094H181.007V33.5065H180.471C180.471 34.5039 180.123 35.3766 178.924 35.3766H177.157V34.8779V34.5974V33.6V32.9455V32.7273V32.6649H178.167C178.609 32.6649 178.987 32.9143 178.987 33.413V33.6935H179.461V32.5403V32.1974V31.0442H178.987V31.3247C178.987 31.8234 178.64 32.0727 178.167 32.0727H177.157V31.387V29.6104H178.924C180.155 29.6104 180.471 30.4831 180.471 31.4805H181.007V29.1117H177.157H176.715V29.0182Z" fill="black"/><path d="M208.587 29.5481H210.354C211.585 29.5481 211.901 30.4208 211.901 31.4182H212.437V29.0493H208.587H208.146H207.767H207.672H205.905V29.5481L207.104 29.7039V31.948V32.7273V35.2519L205.905 35.4078V35.9065H207.672H207.767H208.146H208.524H212.437V33.5377H211.901C211.901 34.5351 211.554 35.4078 210.354 35.4078H208.587V34.9091V34.6286V33.6312V32.9766V32.7584V32.6961H209.597C210.07 32.6961 210.418 32.9455 210.418 33.4442V33.7247H210.891V32.5714V32.2286V31.0753H210.418V31.3558C210.418 31.8545 210.07 32.1039 209.597 32.1039H208.587V31.4182V29.5481Z" fill="black"/><path d="M98.2664 29.0182H97.8877H97.793H96.0259V29.5169L97.225 29.6727V31.9169V32.6961V35.2208L96.0259 35.3766V35.8753H97.793H97.8877H98.0455H98.6451H99.9073V35.3766C99.8442 35.3766 98.7082 35.2208 98.7082 35.2208V32.6026H99.718C100.16 32.6026 100.538 32.852 100.538 33.3507V33.6312H101.012V32.4779V32.1351V30.9818H100.538V31.2623C100.538 31.761 100.191 32.0104 99.718 32.0104H98.7082V31.8857V31.3247V29.6416V29.5169H100.475C101.706 29.5169 102.053 30.3896 102.053 31.387H102.59V29.0182H98.7397H98.2664Z" fill="black"/><path d="M200.256 29.5169L201.203 29.6727L199.436 33.974L197.637 29.6415L198.71 29.4857V28.987H194.987V29.4857L196.059 29.6415C196.059 29.6415 197.827 33.5688 198.742 35.813H199.436C200.162 34.0675 202.055 29.6415 202.055 29.6415L202.844 29.5169V29.0182H200.32V29.5169H200.256Z" fill="black"/><path d="M69.1399 34.6286C68.8559 35.1896 68.1932 35.5325 67.3097 35.5325H67.2781C66.3945 35.5325 65.7003 35.2208 65.4478 34.6286C65.1638 34.0987 65.1007 33.5688 65.1007 32.3844C65.1007 31.3558 65.29 30.7636 65.5425 30.2961C65.8265 29.7351 66.4892 29.3299 67.3097 29.3299C68.1301 29.3299 68.7928 29.7351 69.0768 30.2961C69.3293 30.7636 69.5186 31.3558 69.5186 32.3844C69.487 33.5688 69.4239 34.1299 69.1399 34.6286ZM67.2781 28.8623C66.1421 28.8623 65.1323 29.2987 64.4065 30.0156C63.7438 30.6701 63.4282 31.4805 63.4282 32.4156C63.4282 33.3818 63.7438 34.1922 64.3434 34.7844C65.1954 35.626 66.1105 36 67.1834 36H67.3412C68.4141 36 69.3293 35.626 70.1813 34.7844C70.8124 34.1922 71.0964 33.3818 71.0964 32.4156C71.0964 31.4805 70.7808 30.639 70.1182 30.0156C69.4239 29.2987 68.4141 28.8623 67.2781 28.8623Z" fill="black"/><path d="M79.8374 34.6286C79.5534 35.1896 78.8592 35.5325 78.0072 35.5325H77.9756C77.092 35.5325 76.3978 35.2208 76.1453 34.6286C75.8613 34.0987 75.7982 33.5688 75.7982 32.3844C75.7982 31.3558 75.9876 30.7636 76.24 30.2961C76.524 29.7351 77.1867 29.3299 78.0072 29.3299C78.8276 29.3299 79.4903 29.7351 79.7743 30.2961C80.0268 30.7636 80.2161 31.3558 80.2161 32.3844C80.1845 33.5688 80.1214 34.1299 79.8374 34.6286ZM77.9756 28.8623C76.8396 28.8623 75.8298 29.2987 75.104 30.0156C74.4413 30.6701 74.1257 31.4805 74.1257 32.4156C74.1257 33.3818 74.4413 34.1922 75.0409 34.7844C75.8929 35.626 76.808 36 77.8809 36H78.0387C79.1116 36 80.0268 35.626 80.8788 34.7844C81.5099 34.1922 81.8255 33.3818 81.8255 32.4156C81.8255 31.4805 81.5099 30.639 80.8472 30.0156C80.153 29.2987 79.1116 28.8623 77.9756 28.8623Z" fill="black"/><path d="M111.331 34.6286C111.047 35.1896 110.384 35.5325 109.5 35.5325H109.469C108.585 35.5325 107.891 35.2208 107.638 34.6286C107.354 34.0987 107.291 33.5688 107.291 32.3844C107.291 31.3558 107.481 30.7636 107.733 30.2961C108.017 29.7351 108.68 29.3299 109.5 29.3299C110.321 29.3299 110.983 29.7351 111.267 30.2961C111.52 30.7636 111.709 31.3558 111.709 32.3844C111.678 33.5688 111.615 34.1299 111.331 34.6286ZM109.469 28.8623C108.333 28.8623 107.323 29.2987 106.597 30.0156C105.934 30.6701 105.619 31.4805 105.619 32.4156C105.619 33.3818 105.934 34.1922 106.534 34.7844C107.386 35.626 108.301 36 109.374 36H109.532C110.605 36 111.52 35.626 112.372 34.7844C113.003 34.1922 113.319 33.3818 113.319 32.4156C113.319 31.4805 113.003 30.639 112.34 30.0156C111.615 29.2987 110.605 28.8623 109.469 28.8623Z" fill="black"/><path d="M146.674 31.7922H145.664V28.4883H146.989C147.715 28.4883 148.914 28.8623 148.914 30.0156C148.946 31.5428 147.431 31.7922 146.674 31.7922ZM150.492 34.6909C150.271 34.1922 149.893 33.4753 149.64 33.0078C149.23 32.2909 148.346 32.135 147.873 32.0415C149.041 32.0415 150.429 31.5117 150.429 30.0156C150.429 28.5195 149.198 27.9896 147.873 27.9896H145.064H144.875H144.433H142.982V28.4883C143.045 28.4883 144.181 28.6441 144.181 28.6441V31.1065V31.8857V35.2519C144.181 35.2519 143.013 35.4078 142.982 35.4078V35.9065H144.844H145.001H146.863V35.4078C146.8 35.4078 145.664 35.2519 145.664 35.2519V32.3844H145.696H146.895C147.21 32.3844 147.81 32.6026 148.031 33.0701C148.252 33.5065 148.63 34.4415 149.04 35.2519C149.419 36 150.271 35.9065 150.839 35.9065H151.439H151.47H151.597V35.4078H151.47C151.47 35.3143 150.745 35.2208 150.492 34.6909Z" fill="black"/><path d="M59.8938 28.4571H60.2725C60.5565 28.4571 60.809 28.5818 60.6196 28.8935L57.6849 34.348L56.3911 31.948L57.8111 29.3299C57.8111 29.3299 57.8111 29.2987 57.8427 29.2987L57.9058 29.174C58.316 28.4571 58.4738 28.4571 58.9471 28.4571V27.9584H56.9275V28.4571C57.3062 28.4571 57.4324 28.7065 57.3378 28.9558C57.1169 29.3299 56.328 30.7948 56.0755 31.2623L54.8133 28.8935C54.687 28.613 54.8764 28.4571 55.1604 28.4571H55.2235V27.9584H52.7937V28.4571C53.1723 28.4571 53.2986 28.4571 53.5195 28.9558C53.5826 29.0805 53.6457 29.2052 53.7088 29.3299L55.3497 32.4467C54.7502 33.4753 54.2453 34.3169 54.2137 34.3169C53.9612 33.8493 51.7839 29.8597 51.4683 29.2364C51.1212 28.5195 51.6261 28.4571 52.0363 28.4571V27.9584H48.8491V28.4571C49.4171 28.4571 49.6065 28.3636 50.0798 29.2987L53.5195 35.813H54.2137L55.6968 33.1636L57.0853 35.813H57.6849L61.1245 29.3299C61.6294 28.4883 61.7557 28.4883 62.2606 28.4883V27.9896H59.8307V28.4571H59.8938Z" fill="black"/><path d="M119.882 32.0416H119.157V29.5481H120.261C120.987 29.5481 121.87 29.6727 121.87 30.826C121.902 31.9169 120.64 32.0416 119.882 32.0416ZM124.206 35.3455C124.048 35.3455 123.48 35.3143 123.227 34.6909C123.038 34.1922 122.849 33.7558 122.628 33.2883C122.249 32.5403 121.586 32.3532 121.113 32.2909C121.618 32.2909 123.448 32.1351 123.448 30.639C123.448 29.1429 121.807 29.0493 120.955 29.0493C120.45 29.0493 118.778 29.0493 118.589 29.0493H118.399H117.957H116.506V29.5481C116.569 29.5481 117.705 29.7039 117.705 29.7039V31.948V32.7273V35.2519L116.506 35.4078V35.9065H120.419V35.4078L119.22 35.2519V32.6338H119.251H120.356C120.671 32.6338 121.082 32.7896 121.271 33.3195C121.429 33.787 121.618 34.4416 122.06 35.2519C122.438 36 123.164 35.9065 123.732 35.9065H124.3H124.426V35.4078L124.206 35.3455Z" fill="black"/><path d="M188.328 32.0416H187.602V29.5481H188.707C189.432 29.5481 190.348 29.6727 190.348 30.826C190.379 31.9169 189.085 32.0416 188.328 32.0416ZM192.651 35.3455C192.493 35.3455 191.925 35.3143 191.673 34.6909C191.452 34.1922 191.294 33.7558 191.073 33.2883C190.695 32.5403 190.032 32.3532 189.559 32.2909C190.064 32.2909 191.894 32.1351 191.894 30.639C191.894 29.1429 190.253 29.0493 189.401 29.0493C188.896 29.0493 187.224 29.0493 187.034 29.0493H186.813H186.372H184.92V29.5481L186.119 29.7039V31.948V32.7273V35.2519L184.92 35.4078V35.9065H186.782H186.94H188.801V35.4078C188.738 35.4078 187.602 35.2519 187.602 35.2519V32.6338H187.634H188.707C189.022 32.6338 189.401 32.8519 189.622 33.3195C189.811 33.7558 190.032 34.4416 190.442 35.2519C190.821 36 191.547 35.9065 192.115 35.9065H192.683H192.809V35.4078L192.651 35.3455Z" fill="black"/></svg>