<?xml version="1.0" encoding="UTF-8"?> <svg xmlns="http://www.w3.org/2000/svg" xmlns:xlink="http://www.w3.org/1999/xlink" id="Layer_1" viewBox="0 0 288 26"><defs><clipPath id="clippath"><rect width="288" height="26" style="fill:none;"></rect></clipPath></defs><g style="clip-path:url(#clippath);"><g><path d="M175.45,3.4c-.08,.06-.11,.14-.09,.23,.02,.09,.09,.16,.18,.18,2.99,.62,4.22,2.44,4.72,3.85,.79,2.21,.29,4.78-.62,5.88-.07,.09-.07,.21,0,.29,.07,.08,.19,.1,.29,.05,1.59-.88,2.64-2.27,2.98-3.94,.35-1.69-.07-3.5-1.12-4.83-1.61-2.04-4.93-2.7-6.34-1.72m-2.89,1.76c-1.93,.78-3.32,2.65-3.45,4.65-.09,1.26,.27,3.66,3.64,5.59,.1,.06,.22,.03,.29-.06,.07-.08,.06-.21-.01-.29-.56-.58-1.7-3.76-.65-6.09,.77-1.71,2.53-2.55,5.24-2.47,.09,0,.18-.06,.21-.14,.04-.09,0-.19-.06-.25-1.52-1.34-3.42-1.69-5.21-.96m3.64,2.64c-1.36,.12-2.43,.89-2.95,2.14-.57,1.37-.31,2.97,.65,4.09,.7,.81,2.4,2.07,5.9,1.26,.11-.03,.18-.13,.17-.23,0-.11-.1-.2-.21-.2-.94-.07-3.75-1.14-4.51-3.09-.44-1.14-.06-2.34,1.12-3.58,.07-.06,.08-.17,.04-.25-.04-.08-.13-.13-.22-.13m8.12,.73c-.09,.02-.14,.1-.16,.19-.21,1.85-.59,4.14-1.64,5.48-1.65,2.12-4.36,2.49-5.83,2.53-.1,0-.19,.08-.21,.18v.04c0,.09,.05,.17,.14,.2,3.21,1.32,6.57,.89,8.02-1.02,.78-1.02,1.22-2.41,1.22-3.79s-.45-2.69-1.3-3.73c-.05-.07-.15-.1-.24-.07m-7.34,.63c-.09,0-.17,.06-.19,.15-.15,.42-.21,.81-.21,1.17,0,1.18,.68,2.02,1.41,2.44,.08,.04,.18,.04,.25-.02,1.04-.79,1.14-1.78,.88-2.46-.33-.84-1.18-1.35-2.13-1.28Zm-8.59,3.4c-.1,.03-.17,.12-.18,.22-.01,.23-.03,.46-.01,.68,.33,3.56,2.54,7.12,7.43,7.79,4.42,.61,7.4-2.05,7.53-2.16,.08-.07,.1-.19,.06-.28-.04-.1-.14-.16-.24-.14h-.08c-2.32,.25-5.12,.89-8.74-.62-3.22-1.34-4.67-4.06-5.45-5.34l-.04-.05c-.06-.1-.16-.14-.26-.11Z" style="fill:#db0032; fill-rule:evenodd;"></path><path d="M174.88,25.95c0-.05-.41-.15-.9-.29-.03,0-.06-.02-.09-.03-.12-.03-.25-.07-.38-.12-.03-.01-.05-.02-.07-.03-4.49-1.5-8.03-5.28-8.77-10.52-1.09-7.68,3.26-14.85,3.26-14.85h-6.81l-1.79,3.53h3.23s-2.04,4.85-1.41,10.42c.96,8.54,7.18,11.38,12.74,11.92,.58,.04,1.01,.04,1-.02" style="fill:#bc955c;"></path><path d="M178.63,25.95c0-.05,.41-.15,.9-.29,.03,0,.06-.02,.08-.03,.13-.03,.25-.07,.38-.12,.03-.01,.05-.02,.07-.03,4.49-1.5,8.03-5.28,8.78-10.52,1.09-7.68-3.27-14.85-3.27-14.85h6.82l1.8,3.53h-3.23s2.03,4.85,1.41,10.42c-.96,8.54-7.17,11.38-12.74,11.92-.58,.04-1,.04-1-.02" style="fill:#bc955c;"></path><path d="M36.73,16.19c-.27,.45-1.35,1.54-2.13,1.85-1.01,.39-2.26,.6-2.92,.6h-3.89c-.26,0-.31-.01-.31-.33v-6.14c0-.16,.05-.25,.29-.25h5.02c.84,0,1.13,.17,1.35,.8,.19,.49,.22,1.06,.22,1.06v.2s.97-.02,.97-.02v-5.66h-.91s-.01,.18-.01,.18c0,0-.04,.55-.29,1.08-.3,.62-.84,.9-1.75,.9h-4.34c-.4,0-.48-.04-.5-.05,0,0-.05-.09-.05-.43V4.63c0-.23,0-.43,.03-.48l4.79,.03c1.44,0,2.25,.23,2.5,.43,.79,.61,.7,1.72,.7,1.73l-.02,.22h1.07s0-.19,0-.19V2.71s-13.42,0-13.42,0v1.03l.93,.12c.35,.07,.65,.26,.84,.52,.13,.18,.28,.55,.28,1.36v11.34c0,.92-.13,1.23-.21,1.34-.1,.13-.32,.32-.88,.53-.3,.13-.76,.16-.76,.16l-.19,.02v.89h12.45l2.41-3.95h-1.21l-.06,.1ZM53.07,3.68h.21s.41,0,.92,.16c1.02,.34,1.2,.89,1.2,2.36V15.88c-1.45-1.58-12.01-13.11-12.01-13.11l-.06-.06h-2.7v.94l.17,.03c.19,.03,.72,.12,.9,.2,1.56,.72,1.55,2.09,1.53,3.41v9.09c0,.72-.12,1.38-.33,1.74-.27,.47-.96,.79-2.1,.97l-.17,.03v.92h6.46v-.93h-.19s-1.35-.11-1.94-.77c-.19-.22-.29-.56-.29-1.02V7.43c1.48,1.63,12.13,13.35,12.13,13.35l.04-15.64c0-.64,.24-1.03,.76-1.29,.24-.12,.81-.16,1.02-.17h.2v-.97h-5.74v.97h0ZM27.65,24.52c-2.06-.83-4.84-2.2-7.22-4.21-2.81-2.37-5.41-6.37-6.67-8.2,0,0-2.1-3.18-2.55-3.86,.87-.74,6.05-5.12,6.94-5.71,1.4-.94,2.68-1.39,3.7-1.31l.22,.02V.11H13.58V1.23h.19c.9,.06,1.49,.25,1.76,.56,.11,.13,.17,.28,.17,.46v.1c-.04,.42-.84,1.53-4.36,4.41,0,0-3.76,2.99-4.9,3.89V3.04c0-.82,.28-1.32,.86-1.56,.24-.09,.81-.19,2.15-.19h.2V.11H0V1.23H.2c2.12,0,2.7,.41,2.86,.64,.22,.36,.34,.98,.34,1.83v14.25c0,1.12-.25,1.88-.74,2.24-.44,.33-1.27,.48-2.45,.45h-.21s0,1.08,0,1.08H9.51v-1.15h-.87c-1.49,0-2.22-.6-2.22-1.83v-6.48c.13-.1,2.03-1.75,2.31-1.99,.24,.32,4.2,5.61,4.2,5.61,4.13,5.93,8.9,8.47,12.55,9.38,.06,.01,.11,.03,.17,.04,.06,.01,.12,.03,.18,.04,.16,.04,.33,.07,.51,.11,3.75,.79,5.98,.2,5.98,.2-1.74-.26-3.99-.87-4.64-1.14,0,0-.02,0-.03,0ZM61.66,2.71l-.02,.18c-.37,3.15-.37,3.16-.37,3.18v.2h.86l.05-.14c.36-1.08,.54-1.38,.7-1.5,.13-.09,.44-.2,1.07-.2h3.89c.11,0,.17,.12,.17,.35v12.7c0,.56-.14,.94-.42,1.21-.44,.43-1.29,.42-1.31,.42h-.2v.93h6.22v-.94h-.21s-.88,.02-1.48-.51c-.2-.17-.31-.58-.31-1.12V4.77c0-.35,.14-.35,.21-.35h3.92c.39,0,.73,.07,1.03,.22,.5,.25,.79,1.22,.8,1.43v.19h.99l-.41-3.56h-15.2Zm67.96,.82l.18,.02s.5,.04,.88,.18c.44,.16,.44,.32,.44,.51,0,.24-.5,.7-1,1.15l-5.2,4.74c-.23,.2-.31,.27-.37,.3,0-.06-.02-.17-.02-.17V4.94c0-.61,.19-.92,.74-1.19,.33-.16,.87-.19,.88-.2h.2v-1.02h-6.19v.96l.98,.22c.75,.19,1.07,.61,1.07,1.42v12.38c0,.46-.1,.83-.3,1.07-.2,.25-1.13,.43-1.58,.52l-.17,.03v.97h6.65v-.98l-.18-.02c-.92-.07-1.55-.38-1.76-.63-.22-.3-.33-.74-.33-1.35v-4.87c0-.14,.03-.14,.09-.14,0,0,.14,.03,.56,.47l7.17,7.51h3.97v-1.04h-.21c-1.09,0-2.19-.5-3.01-1.38l-6.42-6.76c-.24-.24-.25-.34-.26-.34,0,.01,.06-.12,.56-.57l5.77-5.13c.46-.41,.95-.69,1.34-.9,.47-.27,1.63-.41,2.04-.45l.19-.02v-.97h-6.7v.99h0Zm19.16-.99v.89h.19c.64,.06,1.7,.23,1.7,.93,0,.29-.1,.61-.31,.96l-2.6,4.24c-.23,.41-.34,.49-.36,.5,0-.02-.19-.14-.6-.8l-2.7-4.33c-.3-.46-.34-.68-.34-.77,0-.22,.33-.59,1.23-.67l.19-.02v-.93h-5.93v.93l.18,.02c1.18,.12,1.39,.45,1.66,.86l.07,.11,4,6.4c.44,.71,.54,1.04,.54,1.19v5.26c0,.54-.08,.93-.23,1.17-.12,.2-.75,.61-1.53,.65h-.2v.97h6.29v-1h-.2c-.68-.04-1.16-.22-1.49-.57-.22-.23-.33-.64-.33-1.21v-5.67c0-.19,.13-.49,.38-.88l3.55-5.51,.8-1.12c.18-.23,.38-.39,.65-.54,.29-.13,.64-.13,.64-.13h.21s0-.95,0-.95h-5.48Zm-32.27,13.11c-.3,.42-.96,1.26-2.01,2.07-1.21,.93-2.77,1.4-4.66,1.4-2.01,0-3.68-.8-4.96-2.36-1.29-1.59-1.95-3.57-1.95-5.85s.6-4.21,1.79-5.5c1.18-1.3,2.87-1.95,5.01-1.95,1.67,0,2.96,.42,3.97,1.3,1.01,.86,1.79,1.82,2.33,2.86,0-.01,.24,.48,.24,.48l.06,.11h.96s-.41-4.56-.41-4.56h-.86l-.03,.17c-.02,.1-.08,.26-.16,.28-.2,.04-.24,.01-.71-.27l-.06-.03c-.77-.45-1.6-.8-2.49-1.04-.89-.25-1.96-.38-3.16-.38-2.59,0-4.76,.92-6.44,2.71-1.68,1.8-2.53,4.04-2.53,6.66,0,2.37,.78,4.41,2.33,6.06,1.56,1.66,3.94,2.49,7.07,2.49,1.54,0,3.03-.22,4.43-.65,1.39-.43,2.11-.89,2.14-.91l.06-.04,.03-.07q.95-2.81,.95-2.87v-.2h-.87s-.06,.1-.06,.1h0ZM92.8,3.52l.53,.07,.62,.09c.8,.19,1.22,.8,1.22,1.75v7.86c0,1.83-.46,3.24-1.37,4.18-.9,.96-2.21,1.42-3.99,1.42s-3.25-.47-4.25-1.4c-.99-.95-1.48-2.26-1.48-3.98V5.06c0-.46,.07-.78,.19-.95,.12-.16,.36-.38,.68-.47,0,0,.89-.09,.89-.09l.18-.02v-.19s.01-.81,.01-.81h-6.15v1.02h.21c.21-.02,.81,0,1.13,.16,.45,.23,.52,.49,.52,1.14V12.95c0,4.86,2.66,7.33,7.9,7.33,2.19,0,3.92-.61,5.14-1.83,1.23-1.22,1.85-2.94,1.85-5.11V5.43c0-.48,.08-.86,.24-1.13,.14-.26,.4-.7,1.51-.75h.19v-1.02h-5.76v.99Z" style="fill:#fff;"></path><path d="M217.44,2.86c-2.12-1.9-4.74-2.86-7.77-2.86h-9.88V1.08h.2s.45,.02,1.11,.19c.36,.09,.67,.28,.91,.54,.17,.18,.37,.6,.37,1.61v14.93c0,1.25-.44,1.91-1.48,2.22,0,0-1.1,.2-1.1,.2v.17s-.01,.88-.01,.88h8.93c7.92,0,11.93-4.01,11.93-11.92,0-2.77-1.08-5.14-3.21-7.06m-1.66,15.48c-1.45,1.51-3.46,2.28-5.99,2.28-1.41,0-2.56-.19-3.4-.55-.8-.35-1.18-.8-1.18-1.37V2.85c0-.7,.14-1.15,.41-1.36,.19-.15,.74-.32,2.26-.32,3,0,5.46,.94,7.31,2.8,1.85,1.88,2.79,4.41,2.79,7.54s-.74,5.3-2.19,6.82m52.89-8.04s-.03-.01-.08-.03h0c.49-.29,.94-.73,1.38-1.34,.38-.53,.57-1.24,.57-2.13,0-1.31-.5-2.37-1.48-3.12-.97-.75-2.39-1.14-4.23-1.14h-6.46v1.06h.21c.07,0,1.83,.02,1.83,1.55v12.03c0,.5,0,1.07-.22,1.3-.62,.61-1.61,.67-1.62,.67h-.2v.96h7.49c1.96,0,3.5-.54,4.56-1.6,1.09-1.08,1.64-2.33,1.64-3.73,0-1.12-.28-2.04-.84-2.76-.58-.75-1.44-1.34-2.56-1.72m-5.92-5.63c0-.35,.07-.6,.22-.73,.1-.09,.36-.19,1.03-.19,1.32,0,2.44,.35,3.24,1.01,.75,.61,1.13,1.14,1.13,2.4,0,.88-.16,1.78-1.28,2.42-.68,.38-1.5,.45-2.87,.45-.9,0-1.21-.05-1.32-.1-.09-.03-.14-.2-.14-.45V4.66h0Zm5.96,13.48c-.72,.6-1.68,.89-2.84,.89-1.72,0-2.38-.16-2.62-.31-.33-.18-.49-.57-.49-1.18v-5.94c0-.16,.05-.31,.41-.35l1.11-.08c2.01,0,3.45,.38,4.29,1.11,.83,.74,1.25,1.83,1.25,3.26,0,1.12-.37,1.99-1.09,2.58m13.8-15.61v.9h.19c1.09,.09,1.7,.41,1.7,.92,0,.29-.1,.62-.31,.96l-2.6,4.24c-.19,.32-.3,.45-.34,.49-.06-.04-.23-.18-.61-.78l-2.7-4.34c-.23-.37-.34-.63-.34-.76,0-.16,.22-.58,1.22-.67l.19-.02v-.94h-5.92v.96l.19,.02c1.17,.11,1.39,.45,1.65,.85l.07,.12,4,6.41c.43,.69,.52,1.02,.52,1.18v5.26c0,.56-.07,.94-.22,1.17-.12,.21-.74,.61-1.53,.66h-.19v.96h6.3v-1h-.2c-.68-.04-1.18-.23-1.48-.57-.22-.23-.33-.64-.33-1.21v-5.67c0-.13,.07-.39,.37-.86l3.56-5.52,.79-1.12c.19-.24,.38-.4,.65-.54,.29-.13,.64-.12,.64-.12h.21v-.96h-5.49Zm-44.67,14.08c-.29,.5-1.14,1.15-1.89,1.45-1.01,.4-2.28,.61-2.96,.61h-3.94c-.26,0-.32-.01-.32-.34v-6.22c0-.16,.04-.26,.29-.26h5.09c.85,0,1.14,.18,1.38,.81,.18,.49,.22,1.06,.22,1.07v.19h.97v-5.75h-.91v.19s-.06,.56-.31,1.1c-.3,.64-.84,.92-1.77,.92h-4.39c-.4,0-.5-.04-.5-.05,0,0-.05-.08-.05-.44V4.64c0-.35,0-.6,.03-.65l4.85,.02c1.45,0,2.28,.24,2.55,.44,.79,.61,.71,1.74,.71,1.75l-.02,.22,.99,.03v-.21s0-3.69,0-3.69h-13.54v1.05l.94,.13c.36,.07,.66,.26,.87,.54,.13,.17,.28,.56,.28,1.37v11.5c0,.89-.12,1.23-.21,1.36-.1,.13-.32,.32-.88,.53-.32,.14-.79,.18-.79,.18h-.19v.92h12.62l2.19-3.58h-1.22l-.06,.1h0Z" style="fill:#bc955c;"></path><path d="M264.47,23.87s-3.81-.25-6.61-2.76c-1.94-1.74-3.73-4.44-4.8-6.06l-.17-.26-1.38-2.33s-.38-.79-.54-1.04c.94-.21,1.92-.71,2.62-1.5,.65-.71,.92-1.85,.92-3.03,0-2.89-1.84-4.36-5.47-4.36h-7.37v.9l.16,.02c1.33,.16,2.07,.75,2.07,1.65v11.83c0,.8-.12,1.32-.35,1.57-.25,.25-.51,.43-.77,.53l-.8,.22v.14s0,.68,0,.68h6.71v-.91l-.18-.02-.86-.1c-.51-.1-.82-.28-1.07-.47-.25-.18-.38-.55-.38-1.08v-5.2c0-.22,.05-.3,.07-.32,.02-.01,.17-.07,.73-.07,0,0,1.41,.01,1.53,.02,.1,.15,3.82,5.74,3.82,5.74,5.16,7.74,12.08,6.55,12.15,6.54l1.21-.23-1.23-.13h0Zm-18.29-19.4c0-.26,.05-.46,.15-.59,.03-.03,.21-.17,1.04-.17,1.41,0,3.04,.32,3.8,.97,.77,.65,1.14,1.55,1.14,2.76,0,1.12-.3,1.94-.88,2.45-.66,.57-1.79,.8-2.64,.81h-1.66c-.6,0-.78-.09-.82-.12-.05-.04-.14-.18-.14-.64V4.46h0Z" style="fill:#bc955c;"></path><path d="M194.22,21.94c1.14,0,2.02,.88,2.02,1.99s-.88,2.02-2.03,2.02-2.06-.88-2.06-2.02,.91-1.99,2.06-1.99h.01Zm-.03,.35c-.91,0-1.6,.74-1.6,1.64s.69,1.65,1.63,1.65c.9,.01,1.58-.73,1.58-1.64s-.68-1.65-1.59-1.65h-.01Zm-.35,2.74h-.39v-2.09c.21-.04,.44-.06,.73-.06,.35,0,.53,.06,.66,.16,.13,.09,.21,.25,.21,.45,0,.25-.19,.41-.4,.49v.03c.18,.07,.28,.24,.34,.51,.06,.31,.11,.44,.16,.51h-.4c-.06-.07-.11-.26-.18-.54-.05-.24-.19-.34-.48-.34h-.25v.88h0Zm0-1.18h.27c.28,0,.54-.09,.54-.32,0-.2-.14-.35-.51-.35-.15,0-.24,.01-.3,.03v.65h0Z" style="fill:#bc955c;"></path></g></g></svg> 